<svg width="40" height="40" viewBox="0 0 40 40" fill="none" xmlns="http://www.w3.org/2000/svg">
<rect width="40" height="40" rx="4" fill="url(#paint0_linear_1017_2456)" fill-opacity="0.8"/>
<path fill-rule="evenodd" clip-rule="evenodd" d="M20 30.5C20.1989 30.5 20.3896 30.421 20.5303 30.2803C20.671 30.1397 20.75 29.9489 20.75 29.75V12.0605L25.469 16.781C25.6098 16.9218 25.8008 17.0009 26 17.0009C26.1991 17.0009 26.3901 16.9218 26.531 16.781C26.6718 16.6402 26.7509 16.4492 26.7509 16.25C26.7509 16.0508 26.6718 15.8598 26.531 15.719L20.531 9.719C20.4613 9.64915 20.3785 9.59374 20.2874 9.55593C20.1963 9.51812 20.0986 9.49866 20 9.49866C19.9013 9.49866 19.8036 9.51812 19.7125 9.55593C19.6214 9.59374 19.5386 9.64915 19.469 9.719L13.469 15.719C13.3992 15.7887 13.3439 15.8715 13.3062 15.9626C13.2684 16.0537 13.249 16.1514 13.249 16.25C13.249 16.4492 13.3281 16.6402 13.469 16.781C13.6098 16.9218 13.8008 17.0009 14 17.0009C14.1991 17.0009 14.3901 16.9218 14.531 16.781L19.25 12.0605V29.75C19.25 29.9489 19.329 30.1397 19.4696 30.2803C19.6103 30.421 19.8011 30.5 20 30.5Z" fill="white"/>
<defs>
<linearGradient id="paint0_linear_1017_2456" x1="42.5" y1="34.5833" x2="18.3333" y2="1.66667" gradientUnits="userSpaceOnUse">
<stop stop-color="#219653"/>
<stop offset="1" stop-color="#56BA8A"/>
</linearGradient>
</defs>
</svg>
