<svg width="14" height="14" viewBox="0 0 14 14" fill="none" xmlns="http://www.w3.org/2000/svg">
<path d="M6.99996 3.25C6.99996 3.13949 6.95606 3.03351 6.87792 2.95537C6.79978 2.87723 6.6938 2.83333 6.58329 2.83333C6.47279 2.83333 6.36681 2.87723 6.28866 2.95537C6.21052 3.03351 6.16663 3.13949 6.16663 3.25V7.83333C6.16665 7.90678 6.18609 7.97891 6.22296 8.04242C6.25984 8.10594 6.31285 8.15857 6.37663 8.195L9.29329 9.86167C9.38901 9.9134 9.50116 9.92564 9.60578 9.89577C9.7104 9.8659 9.79919 9.7963 9.85317 9.70183C9.90715 9.60737 9.92204 9.49554 9.89465 9.39024C9.86727 9.28494 9.79979 9.19453 9.70663 9.13833L6.99996 7.59167V3.25Z" fill="#DDDDDD"/>
<path d="M6.99998 13.6667C8.76809 13.6667 10.4638 12.9643 11.714 11.714C12.9643 10.4638 13.6666 8.76811 13.6666 7C13.6666 5.23189 12.9643 3.5362 11.714 2.28596C10.4638 1.03571 8.76809 0.333334 6.99998 0.333334C5.23187 0.333334 3.53618 1.03571 2.28593 2.28596C1.03569 3.5362 0.333313 5.23189 0.333313 7C0.333313 8.76811 1.03569 10.4638 2.28593 11.714C3.53618 12.9643 5.23187 13.6667 6.99998 13.6667ZM12.8333 7C12.8333 8.5471 12.2187 10.0308 11.1248 11.1248C10.0308 12.2188 8.54708 12.8333 6.99998 12.8333C5.45288 12.8333 3.96915 12.2188 2.87519 11.1248C1.78123 10.0308 1.16665 8.5471 1.16665 7C1.16665 5.4529 1.78123 3.96917 2.87519 2.87521C3.96915 1.78125 5.45288 1.16667 6.99998 1.16667C8.54708 1.16667 10.0308 1.78125 11.1248 2.87521C12.2187 3.96917 12.8333 5.4529 12.8333 7Z" fill="#DDDDDD"/>
</svg>
