<svg width="21" height="20" viewBox="0 0 21 20" fill="none" xmlns="http://www.w3.org/2000/svg">
<path d="M4.25001 1.66669C3.69747 1.66669 3.16757 1.88618 2.77687 2.27688C2.38617 2.66758 2.16667 3.19749 2.16667 3.75002L2.16667 16.25C2.16667 16.8026 2.38617 17.3325 2.77687 17.7232C3.16757 18.1139 3.69747 18.3334 4.25001 18.3334H16.75C17.3025 18.3334 17.8324 18.1139 18.2231 17.7232C18.6138 17.3325 18.8333 16.8026 18.8333 16.25V3.75002C18.8333 3.19749 18.6138 2.66758 18.2231 2.27688C17.8324 1.88618 17.3025 1.66669 16.75 1.66669H4.25001ZM5.81251 4.27085C11.5656 4.27085 16.2292 8.9344 16.2292 14.6875C16.2292 14.9638 16.1194 15.2287 15.9241 15.4241C15.7287 15.6194 15.4638 15.7292 15.1875 15.7292C14.9112 15.7292 14.6463 15.6194 14.4509 15.4241C14.2556 15.2287 14.1458 14.9638 14.1458 14.6875C14.1458 12.4774 13.2679 10.3578 11.7051 8.79496C10.1423 7.23216 8.02264 6.35419 5.81251 6.35419C5.53624 6.35419 5.27129 6.24444 5.07594 6.04909C4.88059 5.85374 4.77084 5.58879 4.77084 5.31252C4.77084 5.03625 4.88059 4.7713 5.07594 4.57595C5.27129 4.3806 5.53624 4.27085 5.81251 4.27085ZM5.81251 8.43752C7.47011 8.43752 9.05982 9.096 10.2319 10.2681C11.404 11.4402 12.0625 13.0299 12.0625 14.6875C12.0625 14.9638 11.9528 15.2287 11.7574 15.4241C11.5621 15.6194 11.2971 15.7292 11.0208 15.7292C10.7446 15.7292 10.4796 15.6194 10.2843 15.4241C10.0889 15.2287 9.97917 14.9638 9.97917 14.6875C9.97917 13.5825 9.54019 12.5226 8.75878 11.7412C7.97738 10.9598 6.91757 10.5209 5.81251 10.5209C5.53624 10.5209 5.27129 10.4111 5.07594 10.2158C4.88059 10.0204 4.77084 9.75546 4.77084 9.47919C4.77084 9.20292 4.88059 8.93797 5.07594 8.74262C5.27129 8.54727 5.53624 8.43752 5.81251 8.43752ZM6.33334 15.7292C5.91894 15.7292 5.52151 15.5646 5.22848 15.2715C4.93546 14.9785 4.77084 14.5811 4.77084 14.1667C4.77084 13.7523 4.93546 13.3549 5.22848 13.0618C5.52151 12.7688 5.91894 12.6042 6.33334 12.6042C6.74774 12.6042 7.14517 12.7688 7.43819 13.0618C7.73122 13.3549 7.89584 13.7523 7.89584 14.1667C7.89584 14.5811 7.73122 14.9785 7.43819 15.2715C7.14517 15.5646 6.74774 15.7292 6.33334 15.7292Z" fill="#8CB786"/>
</svg>
