<svg width="18" height="18" viewBox="0 0 18 18" fill="none" xmlns="http://www.w3.org/2000/svg">
<path fill-rule="evenodd" clip-rule="evenodd" d="M6.75 3.9375C6.75 3.48995 6.92779 3.06072 7.24426 2.74426C7.56072 2.42779 7.98995 2.25 8.4375 2.25H9.5625C10.0101 2.25 10.4393 2.42779 10.7557 2.74426C11.0722 3.06072 11.25 3.48995 11.25 3.9375V5.0625C11.25 5.51005 11.0722 5.93928 10.7557 6.25574C10.4393 6.57221 10.0101 6.75 9.5625 6.75V7.875H15.75C15.8992 7.875 16.0423 7.93426 16.1477 8.03975C16.2532 8.14524 16.3125 8.28832 16.3125 8.4375V9.5625C16.3125 9.71168 16.2532 9.85476 16.1477 9.96025C16.0423 10.0657 15.8992 10.125 15.75 10.125C15.6008 10.125 15.4577 10.0657 15.3523 9.96025C15.2468 9.85476 15.1875 9.71168 15.1875 9.5625V9H9.5625V9.5625C9.5625 9.71168 9.50324 9.85476 9.39775 9.96025C9.29226 10.0657 9.14918 10.125 9 10.125C8.85082 10.125 8.70774 10.0657 8.60225 9.96025C8.49676 9.85476 8.4375 9.71168 8.4375 9.5625V9H2.8125V9.5625C2.8125 9.71168 2.75324 9.85476 2.64775 9.96025C2.54226 10.0657 2.39918 10.125 2.25 10.125C2.10082 10.125 1.95774 10.0657 1.85225 9.96025C1.74676 9.85476 1.6875 9.71168 1.6875 9.5625V8.4375C1.6875 8.28832 1.74676 8.14524 1.85225 8.03975C1.95774 7.93426 2.10082 7.875 2.25 7.875H8.4375V6.75C7.98995 6.75 7.56072 6.57221 7.24426 6.25574C6.92779 5.93928 6.75 5.51005 6.75 5.0625V3.9375ZM9.5625 5.625C9.71168 5.625 9.85476 5.56574 9.96025 5.46025C10.0657 5.35476 10.125 5.21168 10.125 5.0625V3.9375C10.125 3.78832 10.0657 3.64524 9.96025 3.53975C9.85476 3.43426 9.71168 3.375 9.5625 3.375H8.4375C8.28832 3.375 8.14524 3.43426 8.03975 3.53975C7.93426 3.64524 7.875 3.78832 7.875 3.9375V5.0625C7.875 5.21168 7.93426 5.35476 8.03975 5.46025C8.14524 5.56574 8.28832 5.625 8.4375 5.625H9.5625ZM0 12.9375C0 12.4899 0.17779 12.0607 0.494257 11.7443C0.810725 11.4278 1.23995 11.25 1.6875 11.25H2.8125C3.26005 11.25 3.68928 11.4278 4.00574 11.7443C4.32221 12.0607 4.5 12.4899 4.5 12.9375V14.0625C4.5 14.5101 4.32221 14.9393 4.00574 15.2557C3.68928 15.5722 3.26005 15.75 2.8125 15.75H1.6875C1.23995 15.75 0.810725 15.5722 0.494257 15.2557C0.17779 14.9393 0 14.5101 0 14.0625L0 12.9375ZM1.6875 12.375C1.53832 12.375 1.39524 12.4343 1.28975 12.5398C1.18426 12.6452 1.125 12.7883 1.125 12.9375V14.0625C1.125 14.2117 1.18426 14.3548 1.28975 14.4602C1.39524 14.5657 1.53832 14.625 1.6875 14.625H2.8125C2.96168 14.625 3.10476 14.5657 3.21025 14.4602C3.31574 14.3548 3.375 14.2117 3.375 14.0625V12.9375C3.375 12.7883 3.31574 12.6452 3.21025 12.5398C3.10476 12.4343 2.96168 12.375 2.8125 12.375H1.6875ZM6.75 12.9375C6.75 12.4899 6.92779 12.0607 7.24426 11.7443C7.56072 11.4278 7.98995 11.25 8.4375 11.25H9.5625C10.0101 11.25 10.4393 11.4278 10.7557 11.7443C11.0722 12.0607 11.25 12.4899 11.25 12.9375V14.0625C11.25 14.5101 11.0722 14.9393 10.7557 15.2557C10.4393 15.5722 10.0101 15.75 9.5625 15.75H8.4375C7.98995 15.75 7.56072 15.5722 7.24426 15.2557C6.92779 14.9393 6.75 14.5101 6.75 14.0625V12.9375ZM8.4375 12.375C8.28832 12.375 8.14524 12.4343 8.03975 12.5398C7.93426 12.6452 7.875 12.7883 7.875 12.9375V14.0625C7.875 14.2117 7.93426 14.3548 8.03975 14.4602C8.14524 14.5657 8.28832 14.625 8.4375 14.625H9.5625C9.71168 14.625 9.85476 14.5657 9.96025 14.4602C10.0657 14.3548 10.125 14.2117 10.125 14.0625V12.9375C10.125 12.7883 10.0657 12.6452 9.96025 12.5398C9.85476 12.4343 9.71168 12.375 9.5625 12.375H8.4375ZM13.5 12.9375C13.5 12.4899 13.6778 12.0607 13.9943 11.7443C14.3107 11.4278 14.7399 11.25 15.1875 11.25H16.3125C16.7601 11.25 17.1893 11.4278 17.5057 11.7443C17.8222 12.0607 18 12.4899 18 12.9375V14.0625C18 14.5101 17.8222 14.9393 17.5057 15.2557C17.1893 15.5722 16.7601 15.75 16.3125 15.75H15.1875C14.7399 15.75 14.3107 15.5722 13.9943 15.2557C13.6778 14.9393 13.5 14.5101 13.5 14.0625V12.9375ZM15.1875 12.375C15.0383 12.375 14.8952 12.4343 14.7898 12.5398C14.6843 12.6452 14.625 12.7883 14.625 12.9375V14.0625C14.625 14.2117 14.6843 14.3548 14.7898 14.4602C14.8952 14.5657 15.0383 14.625 15.1875 14.625H16.3125C16.4617 14.625 16.6048 14.5657 16.7102 14.4602C16.8157 14.3548 16.875 14.2117 16.875 14.0625V12.9375C16.875 12.7883 16.8157 12.6452 16.7102 12.5398C16.6048 12.4343 16.4617 12.375 16.3125 12.375H15.1875Z" fill="white"/>
</svg>
